<svg width="228" height="46" viewBox="0 0 228 46" fill="none" xmlns="http://www.w3.org/2000/svg">
<path d="M32.8442 9.19328C32.8442 9.04355 32.7773 8.89382 32.677 8.71115C32.3091 8.19908 31.6707 8.01941 30.8986 8.01941C30.093 8.01941 29.2235 8.19907 28.4514 8.53147C28.0835 8.65125 27.7126 8.77103 27.3448 8.77103C26.9101 8.77103 26.5058 8.59137 26.0042 7.95951H21.4442C22.5173 8.10924 23.3898 8.71115 23.5235 9.6754V20.7164C23.3898 21.6687 22.5355 22.2616 21.4806 22.4233C20.6355 22.064 20.2373 21.5669 19.8816 20.8991C19.7478 20.6595 20.2829 21.8933 12.1022 1.43433H9.58815L6.03439 10.9421C5.12847 13.3497 4.28943 15.6945 3.62063 17.5002L2.51407 20.4798C2.01247 21.7735 0.90592 22.3754 0 22.4652H4.15568C3.4504 22.3455 3.01568 22.1029 2.84848 21.7735C2.68128 21.4411 2.58096 21.1716 2.58096 20.932C2.58096 20.7823 2.6144 20.6026 2.68128 20.4499C3.04912 19.4856 3.48688 18.192 3.98848 16.8983C5.59664 13.6791 12.6069 13.769 12.8744 9.64846C14.4826 13.8319 16.4616 18.6142 17.2672 20.5996C17.4344 21.0218 17.5347 21.3513 17.5347 21.5938C17.5347 21.7735 17.4678 22.1059 16.9632 22.4652H21.5566C21.5354 22.4563 21.5202 22.4443 21.4958 22.4353H28.1808C27.0742 22.3455 26.1683 21.6837 26.0011 20.6895V8.11224C26.4024 8.71415 26.8736 8.92376 27.3752 8.92376C27.6762 8.92376 27.9802 8.86386 28.348 8.71413C28.5821 8.6243 28.8496 8.59436 29.1536 8.59436C29.488 8.59436 29.7586 8.65425 29.9592 8.74409C30.8317 9.13638 30.6979 10.1875 31.5339 10.1875C31.5674 10.1875 31.6008 10.1875 31.6342 10.1875C32.5766 10.0976 32.8442 9.52568 32.8442 9.19328ZM4.18911 16.4162C4.99471 14.2511 5.52976 12.8646 5.96752 11.6638L6.63935 9.88802C7.27775 8.14218 8.04687 6.00705 9.65807 1.614C9.75839 1.76373 10.3299 3.29995 12.7437 9.346C12.7406 13.5264 6.10127 13.4965 4.18911 16.4162Z" fill="#E5BAA9"/>
<path d="M74.2033 20.5066V13.7389C74.2033 11.1216 72.8292 8.142 69.543 7.99227C68.5702 7.93238 67.6643 7.99227 66.8617 8.20189C64.9496 8.68402 63.542 10.0675 63.4083 11.8732C62.9036 9.82795 61.4292 8.20189 58.982 7.99227C58.5807 7.96232 58.143 8.02222 57.6414 8.11206C55.9998 8.50435 54.422 9.22603 52.9476 10.0076V7.93237H48.2873C48.722 7.99226 49.2936 8.20189 49.6614 8.44445C50.1296 8.8068 50.4001 9.25599 50.467 9.79801V11.3612C50.166 11.5109 49.7283 11.7834 49.1932 12.1128C48.6248 12.4452 48.0198 12.8345 47.3814 13.2567C46.6761 10.909 44.3627 8.65408 41.5142 8.65408C39.4014 8.65408 37.7263 9.798 37.2886 11.6636C37.1548 12.2955 37.1883 12.8974 37.3555 13.4394C37.6899 14.5534 38.5958 15.335 39.8361 15.6973C40.4745 15.9069 41.2102 15.9369 42.0158 15.847C43.9948 15.6674 45.8705 14.4336 47.4148 13.4095C49.2267 12.2655 51.0689 11.1815 52.9476 10.1603C54.2883 9.46859 56.2673 8.56722 57.842 8.56722C59.0489 8.56722 59.8545 9.10924 60.423 10.0106C60.9246 10.882 61.1283 11.8762 61.1283 12.8375V20.5396C61.1283 21.0816 60.8607 21.5936 60.3895 21.923C59.9883 22.1926 59.4836 22.4052 58.982 22.4651H65.7217C64.5817 22.2854 63.6758 21.5936 63.6089 20.5096V13.7389C63.6089 13.5292 63.6089 13.3166 63.6089 13.107C63.5755 12.8974 63.5755 12.7147 63.542 12.5051C63.5086 11.9032 63.6089 11.3612 63.843 10.8491C64.4814 9.43565 66.2233 8.44145 67.9348 8.44145C69.7467 8.44145 70.8198 9.40571 71.4217 10.8191C71.6224 11.3911 71.7227 12.0529 71.7227 12.8345V20.5366C71.6558 21.6206 70.7164 22.3123 69.5764 22.4621H76.2827C75.1396 22.2824 74.2702 21.5607 74.2033 20.5066ZM45.3324 14.5504C44.3262 15.1224 43.2196 15.5745 42.0128 15.6943C41.04 15.8141 40.2009 15.7542 39.5655 15.4847C38.3252 14.9726 37.5196 14.1012 37.3859 12.8674C37.319 12.2955 37.3859 11.7535 37.62 11.2114C38.0547 10.1274 38.994 9.49555 40.1006 9.04637C40.4684 8.92658 40.8393 8.86668 41.2406 8.86668C41.6753 8.86668 42.1465 8.95652 42.5812 9.1362C44.5603 10.1005 45.1622 12.6578 45.3294 14.4905V14.5504H45.3324Z" fill="#E5BAA9"/>
<path d="M46.4724 14.6103C46.1045 14.82 45.7671 15.0326 45.3992 15.1823C45.4327 16.1136 45.3324 16.9881 45.1652 17.8595C44.7973 19.4855 44.0252 20.8391 42.417 21.7404C41.6783 22.1327 40.8088 22.3124 39.7692 22.2825C35.8476 22.1627 35.0754 18.7608 34.7076 15.9639C34.6072 14.9997 34.6407 14.0384 34.8079 13.1071C35.2426 10.5797 36.9876 8.05224 40.0732 7.9624C36.8204 8.05224 34.1056 9.97775 32.9656 12.6549C32.5644 13.5862 32.3972 14.5505 32.464 15.6046C32.7316 19.1262 35.9844 22.4352 40.0428 22.4352C43.329 22.4352 46.4815 19.9677 47.3844 17.2007C47.7188 16.1166 47.7856 15.0356 47.5516 13.9516C47.1776 14.1881 46.8068 14.4007 46.4724 14.6103Z" fill="#E5BAA9"/>
<path d="M53.3795 21.5908C53.1119 21.3213 52.9782 20.959 52.9447 20.5068V10.7295C52.7775 10.8193 52.4766 10.9691 52.0388 11.2116C51.6041 11.4811 51.066 11.7836 50.4641 12.113V20.6565C50.3304 21.6806 49.391 22.3125 48.3179 22.4622H55.0575C54.9572 22.4323 54.8569 22.4024 54.7566 22.3724C54.2185 22.2227 53.7169 22.043 53.3795 21.5908Z" fill="#E5BAA9"/>
<path d="M90.601 20.5066V13.0142C90.601 9.31287 87.8194 7.98926 85.2354 7.98926C83.1226 7.98926 81.8489 8.86068 81.177 9.97466C80.5052 11.0886 80.642 11.8403 80.642 11.9601C80.642 12.5021 80.7423 13.0142 80.9095 13.4634C78.6629 14.3947 77.0882 15.8111 76.9849 18.066C76.9849 18.1559 76.9849 18.2756 76.9849 18.3655C76.9849 19.0273 77.0852 19.5992 77.3527 20.0814C78.1583 21.8272 80.034 22.6687 82.1802 22.6687C84.4602 22.6687 86.4727 21.4948 88.1143 20.1712C88.1143 21.4649 89.2543 22.4591 90.6284 22.4591H92.7077C91.5039 22.2524 90.601 21.5607 90.601 20.5066ZM88.1173 19.9945C86.3389 21.5277 84.5636 22.0997 83.3233 22.2524C83.1561 22.2824 83.0223 22.2824 82.8551 22.2824C81.3807 22.2824 80.1069 21.2882 79.5354 19.725C79.3013 19.1231 79.201 18.5212 79.201 17.9193C79.201 17.6198 79.2345 17.3174 79.3013 17.0179C79.8364 14.5204 82.2866 12.6548 85.7066 12.6548C86.5122 12.6548 87.3148 12.7447 88.1204 12.9543V19.9945H88.1173ZM88.1173 12.8045C87.2114 12.6249 86.3389 12.535 85.5364 12.535C83.8249 12.535 82.3505 12.9273 81.0433 13.4065C80.8761 12.9842 80.8092 12.535 80.8092 12.1128C80.8092 11.9331 80.8092 11.7505 80.8426 11.5708C81.0433 9.7351 82.5541 8.20188 84.901 8.20188C86.6095 8.23183 87.4485 9.3458 87.8194 10.5197C88.0201 11.1216 88.1204 11.8133 88.1204 12.565C88.1173 12.6548 88.1173 12.7147 88.1173 12.8045Z" fill="#E5BAA9"/>
<path d="M110.768 1C104.296 1 99.4353 6.11474 99.4353 11.7715C99.4353 13.1849 99.7363 14.5684 100.341 15.8621C102.05 19.6832 106.041 22.5699 110.902 22.5699C117.241 22.5699 122.202 17.3354 122.202 11.7685C122.202 5.15348 116.569 1 110.768 1ZM119.621 11.8314C119.621 14.1791 119.052 16.7365 117.575 18.7818C116.101 20.8571 113.854 22.1806 110.869 22.1806C110.835 22.1806 110.768 22.1806 110.735 22.1806C105.202 22.1806 102.217 17.2755 102.05 12.3435C102.05 12.1638 102.05 11.9512 102.05 11.7715C102.05 11.0797 102.083 10.3281 102.217 9.57646C102.685 6.74958 104.029 3.82988 106.442 2.44639C107.75 1.63486 109.224 1.27251 110.802 1.27251C112.009 1.27251 113.149 1.51208 114.222 2.02415C117.003 3.31781 119.353 6.32736 119.621 11.1396C119.621 11.3792 119.621 11.5918 119.621 11.8314Z" fill="#E5BAA9"/>
<path d="M134.842 9.19324C134.842 9.04351 134.775 8.89378 134.675 8.71111C134.307 8.19904 133.669 8.01937 132.897 8.01937C132.091 8.01937 131.221 8.19903 130.449 8.53143C130.081 8.65121 129.711 8.77099 129.343 8.77099C128.908 8.77099 128.504 8.59133 128.002 7.95947H123.442C124.515 8.1092 125.388 8.71111 125.521 9.67536V20.7164C125.388 21.6806 124.515 22.2795 123.442 22.4323H130.182C129.075 22.3424 128.169 21.6806 128.002 20.6864V8.1092C128.403 8.71111 128.875 8.92072 129.376 8.92072C129.677 8.92072 129.981 8.86084 130.349 8.71111C130.583 8.62128 130.851 8.59132 131.155 8.59132C131.489 8.59132 131.76 8.65122 131.96 8.74105C132.833 9.13334 132.699 10.1844 133.535 10.1844C133.568 10.1844 133.602 10.1844 133.635 10.1844C134.575 10.0976 134.842 9.52564 134.842 9.19324Z" fill="#E5BAA9"/>
<path d="M154.441 20.6564V11.7505C153.635 12.8345 152.799 13.8557 151.96 15.0595V20.8061C151.793 21.9201 150.687 22.4921 149.814 22.5819H156.554C155.447 22.4322 154.475 21.7105 154.441 20.6564Z" fill="#E5BAA9"/>
<path d="M165.105 20.6565V13.8888C165.105 13.8289 165.105 13.7391 165.105 13.6792C165.105 10.4001 163.026 8.29491 160.479 8.14219V8.11225C160.278 8.11225 160.077 8.08229 159.84 8.08229C159.001 8.08229 157.861 8.14218 156.788 8.71414C156.016 9.04654 155.247 9.73829 154.441 10.6996V1.52417H149.814C150.687 1.6739 151.961 2.18598 151.961 3.44969V14.0385C149.279 17.7997 146.294 22.1329 142.774 22.2227C142.74 22.2227 142.707 22.2227 142.673 22.2227C139.554 22.2227 137.612 20.417 136.84 17.5002C136.405 15.8143 136.472 14.853 136.472 14.7033C136.472 12.3556 137.445 9.82814 140.159 8.6872C140.998 8.35481 141.767 8.17512 142.54 8.17512C145.054 8.17512 147.434 9.89102 148.708 12.2358L148.841 12.1759C147.768 10.2204 145.522 8.0254 142.269 7.93256C142.202 7.93256 142.169 7.93256 142.102 7.93256C140.357 7.93256 138.247 8.47459 136.636 9.7383C134.994 11.002 133.955 12.8676 133.955 15.0028C133.955 15.1824 133.988 15.3951 133.988 15.5747C133.988 15.967 134.055 16.3264 134.088 16.6887C134.894 20.9021 138.314 22.4353 141.667 22.585C141.767 22.585 141.834 22.585 141.935 22.585C144.014 22.585 145.856 21.5908 147.501 19.9977C149.142 18.4016 150.586 16.2964 151.961 14.2811C152.8 13.1072 153.602 11.9633 154.441 11.002C154.809 10.6097 155.08 10.3103 155.447 9.97787C156.554 8.89383 157.961 8.56442 158.867 8.56442C159.135 8.56442 159.439 8.59438 159.706 8.65427C161.315 8.98367 162.625 10.3103 162.625 12.9575V20.6595C162.625 21.8633 161.351 22.4952 160.479 22.585H167.218C166.045 22.3724 165.139 21.7106 165.105 20.6565Z" fill="#E5BAA9"/>
<path d="M190.018 13.7688C187.37 12.9573 185.191 12.053 185.191 10.4598C185.191 10.37 185.224 10.2802 185.224 10.1604C185.358 8.92661 186.498 7.90248 188.744 7.66291C188.878 7.63297 189.045 7.63296 189.179 7.63296C190.286 7.63296 192.098 7.99531 194.107 9.58842L194.207 9.49859C192.967 8.4445 191.055 7.51318 189.213 7.51318C185.826 7.51318 184.552 9.13923 184.452 11.0947C184.452 11.1845 184.452 11.2744 184.452 11.3342C184.452 13.4694 186.23 14.7331 188.477 15.5177C190.657 16.2693 193.104 16.9311 193.809 18.1349C193.943 18.3745 194.043 18.677 194.043 18.9764C194.043 19.0962 194.01 19.216 194.01 19.3388C193.475 22.4681 185.996 22.7376 183.516 22.7376C179.357 22.7376 175.134 22.0758 173.256 20.7822C172.517 20.2701 171.915 19.6682 171.477 18.9465C171.444 18.7967 171.444 18.6171 171.444 18.4644C171.444 16.9611 172.684 15.5446 174.897 14.5534C177.11 13.5592 179.825 13.1699 182.072 13.1699C182.373 13.1699 182.64 13.1999 182.944 13.1999C182.944 9.34886 179.758 7.51318 176.372 7.51318C173.991 7.51318 171.578 8.3846 169.866 10.0705C168.659 11.3043 167.92 12.9274 167.92 14.793C167.92 14.9128 167.92 15.0326 167.92 15.1553C168.021 19.0962 170.602 21.1714 173.687 21.8961C175.967 22.4681 179.621 22.8903 183.242 22.8903C186.057 22.8903 192.362 22.5579 194.14 20.1533C194.642 19.5214 194.946 18.8297 194.979 18.0181C194.979 17.9583 194.979 17.8984 194.979 17.8085C194.979 15.6644 192.599 14.5804 190.018 13.7688ZM171.31 18.7009C170.404 17.0449 170.304 15.5416 170.304 14.5474C170.304 14.0953 170.337 13.6461 170.404 13.1939L170.438 13.0442C170.805 10.8791 172.116 8.32171 174.73 7.83958C175.064 7.77969 175.402 7.74975 175.703 7.74975C176.676 7.74975 177.949 8.1121 179.022 9.1033C180.096 10.0975 180.698 11.5109 180.698 12.8944C180.698 12.9543 180.698 12.9843 180.698 13.0442C178.518 13.1639 176.138 13.7359 174.292 14.7002C172.447 15.6644 171.307 16.9581 171.307 18.4314C171.31 18.5212 171.31 18.6111 171.31 18.7009Z" fill="#E5BAA9"/>
<path d="M201.251 22.2974C201.385 22.2974 201.552 22.2675 201.719 22.2375C201.576 22.2765 201.394 22.2705 201.239 22.2974C201.245 22.2944 201.248 22.2974 201.251 22.2974Z" fill="#E5BAA9"/>
<path d="M199.71 21.1236C199.375 20.2821 199.309 19.0783 199.309 17.7547V8.09716H201.488V7.94743H196.089C197.968 7.85759 200.348 6.11177 200.348 3.8269H197.868C197.868 5.60269 197.5 7.94743 194.983 7.94743V8.09716H196.828V17.3025C196.828 20.8241 197.466 22.4172 200.248 22.4172C200.61 22.4172 200.923 22.3514 201.245 22.2945C200.607 22.2915 200.041 21.962 199.71 21.1236Z" fill="#E5BAA9"/>
<path d="M213.557 10.1425C213.59 10.1425 213.624 10.1425 213.657 10.1425C214.597 10.0527 214.864 9.48071 214.864 9.14832C214.864 8.99859 214.797 8.84886 214.697 8.66619C214.329 8.15412 213.691 7.97445 212.919 7.97445C212.113 7.97445 211.24 8.15413 210.471 8.48653C210.103 8.60631 209.733 8.72609 209.365 8.72609C208.93 8.72609 208.526 8.54641 208.024 7.91455H203.464C204.537 8.06428 205.41 8.6662 205.543 9.63046V20.6715C205.41 21.6357 204.537 22.2346 203.464 22.3873H210.204C209.097 22.2975 208.191 21.6357 208.024 20.6415V8.06428C208.425 8.66619 208.897 8.87582 209.398 8.87582C209.699 8.87582 210.003 8.81592 210.371 8.66619C210.605 8.57636 210.873 8.5464 211.177 8.5464C211.511 8.5464 211.779 8.60629 211.982 8.69613C212.852 9.08842 212.718 10.1425 213.557 10.1425Z" fill="#E5BAA9"/>
<path d="M225.887 20.4617V12.9692C225.887 9.26793 223.106 7.94434 220.522 7.94434C218.409 7.94434 217.135 8.81576 216.463 9.92974C215.791 11.0437 215.928 11.7953 215.928 11.9151C215.928 12.4571 216.029 12.9692 216.196 13.4184C213.949 14.3497 212.374 15.7662 212.274 18.0211C212.274 18.1109 212.274 18.2307 212.274 18.3205C212.274 18.9823 212.375 19.5543 212.642 20.0364C213.448 21.7823 215.323 22.6237 217.47 22.6237C219.75 22.6237 221.762 21.4499 223.404 20.1263C223.404 21.4199 224.544 22.4141 225.918 22.4141H227.997C226.793 22.2075 225.887 21.5158 225.887 20.4617ZM223.407 19.9496C221.628 21.4828 219.853 22.0548 218.613 22.2075C218.445 22.2375 218.312 22.2374 218.144 22.2374C216.67 22.2374 215.396 21.2433 214.825 19.6801C214.591 19.0782 214.49 18.4763 214.49 17.8743C214.49 17.5719 214.524 17.2724 214.591 16.973C215.126 14.4755 217.576 12.6099 220.996 12.6099C221.802 12.6099 222.604 12.6997 223.41 12.9093L223.407 19.9496ZM223.407 12.7596C222.501 12.5799 221.628 12.4901 220.826 12.4901C219.114 12.4901 217.64 12.8824 216.333 13.3615C216.165 12.9393 216.099 12.4901 216.099 12.0679C216.099 11.8882 216.099 11.7055 216.132 11.5258C216.333 9.69016 217.84 8.15694 220.19 8.15694C221.902 8.18689 222.738 9.30086 223.109 10.4747C223.309 11.0766 223.41 11.7684 223.41 12.52C223.407 12.6099 223.407 12.6698 223.407 12.7596Z" fill="#E5BAA9"/>
</svg>
