<svg width="29" height="25" viewBox="0 0 29 25" fill="none" xmlns="http://www.w3.org/2000/svg">
<mask id="path-1-inside-1_3_220" fill="white">
<path fill-rule="evenodd" clip-rule="evenodd" d="M25.9049 13.057C28.8717 10.0696 28.8717 5.22588 25.9049 2.23839C22.9382 -0.749102 18.1281 -0.749098 15.1614 2.23839L14.065 3.34242L12.9686 2.23841C10.0019 -0.749081 5.19182 -0.749079 2.22506 2.23841C-0.741691 5.2259 -0.741687 10.0696 2.22507 13.0571L3.32141 14.1611L3.29912 14.1835L14.0427 25.0022L14.065 24.9797L14.0873 25.0022L24.8309 14.1836L24.8086 14.1611L25.9049 13.057Z"/>
</mask>
<path d="M25.9049 2.23839L26.6145 1.53375L25.9049 2.23839ZM25.9049 13.057L25.1954 12.3524L25.9049 13.057ZM15.1614 2.23839L14.4518 1.53375L15.1614 2.23839ZM14.065 3.34242L13.3554 4.04706L14.065 4.76158L14.7745 4.04706L14.065 3.34242ZM12.9686 2.23841L13.6782 1.53377L12.9686 2.23841ZM2.22506 2.23841L2.93463 2.94305L2.22506 2.23841ZM2.22507 13.0571L2.93463 12.3524H2.93463L2.22507 13.0571ZM3.32141 14.1611L4.03097 14.8657L4.73073 14.1611L4.03098 13.4564L3.32141 14.1611ZM3.29912 14.1835L2.58955 13.4789L1.8898 14.1835L2.58955 14.8882L3.29912 14.1835ZM14.0427 25.0022L13.3331 25.7068L14.0427 26.4213L14.7522 25.7068L14.0427 25.0022ZM14.065 24.9797L14.7746 24.2751L14.065 23.5606L13.3554 24.2751L14.065 24.9797ZM14.0873 25.0022L13.3777 25.7068L14.0873 26.4214L14.7969 25.7069L14.0873 25.0022ZM24.8309 14.1836L25.5404 14.8882L26.2402 14.1835L25.5404 13.4789L24.8309 14.1836ZM24.8086 14.1611L24.099 13.4564L23.3992 14.1611L24.099 14.8657L24.8086 14.1611ZM25.1954 2.94303C27.7749 5.54056 27.7749 9.75487 25.1954 12.3524L26.6145 13.7617C29.9685 10.3842 29.9685 4.91119 26.6145 1.53375L25.1954 2.94303ZM15.8709 2.94303C18.4466 0.349354 22.6197 0.349352 25.1954 2.94303L26.6145 1.53375C23.2567 -1.84756 17.8096 -1.84755 14.4518 1.53375L15.8709 2.94303ZM14.7745 4.04706L15.8709 2.94303L14.4518 1.53375L13.3554 2.63778L14.7745 4.04706ZM12.2591 2.94305L13.3554 4.04706L14.7745 2.63778L13.6782 1.53377L12.2591 2.94305ZM2.93463 2.94305C5.5103 0.349374 9.6834 0.349373 12.2591 2.94305L13.6782 1.53377C10.3204 -1.84753 4.87333 -1.84753 1.5155 1.53377L2.93463 2.94305ZM2.93463 12.3524C0.355124 9.7549 0.355122 5.54059 2.93463 2.94305L1.5155 1.53377C-1.8385 4.91121 -1.8385 10.3843 1.5155 13.7617L2.93463 12.3524ZM4.03098 13.4564L2.93463 12.3524L1.5155 13.7617L2.61185 14.8657L4.03098 13.4564ZM4.00868 14.8882L4.03097 14.8657L2.61185 13.4564L2.58955 13.4789L4.00868 14.8882ZM14.7523 24.2976L4.00868 13.4789L2.58955 14.8882L13.3331 25.7068L14.7523 24.2976ZM13.3554 24.2751L13.3331 24.2975L14.7522 25.7068L14.7745 25.6844L13.3554 24.2751ZM14.7969 24.2976L14.7746 24.2751L13.3554 25.6844L13.3777 25.7068L14.7969 24.2976ZM24.1213 13.4789L13.3777 24.2976L14.7969 25.7069L25.5404 14.8882L24.1213 13.4789ZM24.099 14.8657L24.1213 14.8882L25.5404 13.4789L25.5181 13.4564L24.099 14.8657ZM25.1954 12.3524L24.099 13.4564L25.5181 14.8657L26.6145 13.7617L25.1954 12.3524Z" fill="#DEBCAC" mask="url(#path-1-inside-1_3_220)"/>
</svg>
