<svg width="29" height="25" viewBox="0 0 29 25" fill="none" xmlns="http://www.w3.org/2000/svg">
<mask id="path-1-inside-1_125_199" fill="white">
<path fill-rule="evenodd" clip-rule="evenodd" d="M26.7065 13.057C29.765 10.07 29.765 5.22718 26.7065 2.24022C23.648 -0.746738 18.6891 -0.746741 15.6306 2.24022L14.5002 3.34424L13.3697 2.24026C10.3112 -0.746696 5.3524 -0.746696 2.29389 2.24026C-0.764626 5.22722 -0.76463 10.07 2.29388 13.057L3.42431 14.161L3.40152 14.1832L14.4774 25L14.5002 24.9777L14.523 25L25.5988 14.1833L25.576 14.161L26.7065 13.057Z"/>
</mask>
<path fill-rule="evenodd" clip-rule="evenodd" d="M26.7065 13.057C29.765 10.07 29.765 5.22718 26.7065 2.24022C23.648 -0.746738 18.6891 -0.746741 15.6306 2.24022L14.5002 3.34424L13.3697 2.24026C10.3112 -0.746696 5.3524 -0.746696 2.29389 2.24026C-0.764626 5.22722 -0.76463 10.07 2.29388 13.057L3.42431 14.161L3.40152 14.1832L14.4774 25L14.5002 24.9777L14.523 25L25.5988 14.1833L25.576 14.161L26.7065 13.057Z" fill="#DEBCAC"/>
<path d="M26.7065 2.24022L27.4052 1.52479L27.4052 1.52479L26.7065 2.24022ZM26.7065 13.057L27.4052 13.7724L27.4052 13.7724L26.7065 13.057ZM15.6306 2.24022L14.9319 1.52479L14.9319 1.52479L15.6306 2.24022ZM14.5002 3.34424L13.8015 4.05967L14.5002 4.74201L15.1989 4.05967L14.5002 3.34424ZM13.3697 2.24026L14.0684 1.52484L14.0684 1.52484L13.3697 2.24026ZM2.29389 2.24026L1.5952 1.52484L1.5952 1.52484L2.29389 2.24026ZM2.29388 13.057L2.99257 12.3416L2.99257 12.3416L2.29388 13.057ZM3.42431 14.161L4.12301 14.8764L4.85556 14.161L4.123 13.4455L3.42431 14.161ZM3.40152 14.1832L2.70283 13.4678L1.97027 14.1832L2.70283 14.8987L3.40152 14.1832ZM14.4774 25L13.7787 25.7154L14.4774 26.3977L15.1761 25.7154L14.4774 25ZM14.5002 24.9777L15.1989 24.2623L14.5002 23.5799L13.8015 24.2623L14.5002 24.9777ZM14.523 25L13.8243 25.7154L14.523 26.3978L15.2217 25.7154L14.523 25ZM25.5988 14.1833L26.2975 14.8987L27.0301 14.1833L26.2975 13.4678L25.5988 14.1833ZM25.576 14.161L24.8773 13.4455L24.1447 14.161L24.8773 14.8764L25.576 14.161ZM26.0078 2.95565C28.6646 5.55025 28.6646 9.74692 26.0078 12.3415L27.4052 13.7724C30.8654 10.3931 30.8654 4.9041 27.4052 1.52479L26.0078 2.95565ZM16.3293 2.95564C18.9993 0.348117 23.3378 0.34812 26.0078 2.95565L27.4052 1.52479C23.9581 -1.8416 18.379 -1.8416 14.9319 1.52479L16.3293 2.95564ZM15.1989 4.05967L16.3293 2.95564L14.9319 1.52479L13.8015 2.62882L15.1989 4.05967ZM12.671 2.95569L13.8015 4.05967L15.1989 2.62882L14.0684 1.52484L12.671 2.95569ZM2.99257 2.95569C5.66256 0.348162 10.0011 0.348162 12.671 2.95569L14.0684 1.52484C10.6214 -1.84155 5.04223 -1.84155 1.5952 1.52484L2.99257 2.95569ZM2.99257 12.3416C0.335808 9.74696 0.33581 5.5503 2.99257 2.95569L1.5952 1.52484C-1.86506 4.90414 -1.86507 10.3931 1.59519 13.7724L2.99257 12.3416ZM4.123 13.4455L2.99257 12.3416L1.59519 13.7724L2.72563 14.8764L4.123 13.4455ZM4.10021 14.8987L4.12301 14.8764L2.72562 13.4456L2.70283 13.4678L4.10021 14.8987ZM15.1761 24.2845L4.10021 13.4678L2.70283 14.8987L13.7787 25.7154L15.1761 24.2845ZM13.8015 24.2623L13.7787 24.2845L15.1761 25.7154L15.1989 25.6931L13.8015 24.2623ZM15.2217 24.2846L15.1989 24.2623L13.8015 25.6931L13.8243 25.7154L15.2217 24.2846ZM24.9002 13.4678L13.8243 24.2846L15.2217 25.7154L26.2975 14.8987L24.9002 13.4678ZM24.8773 14.8764L24.9002 14.8987L26.2975 13.4678L26.2747 13.4455L24.8773 14.8764ZM26.0078 12.3415L24.8773 13.4455L26.2747 14.8764L27.4052 13.7724L26.0078 12.3415Z" fill="#DEBCAC" mask="url(#path-1-inside-1_125_199)"/>
</svg>
