<svg width="464" height="140" viewBox="0 0 464 140" fill="none" xmlns="http://www.w3.org/2000/svg">
<path d="M66.8407 63.8682C66.8407 63.56 66.7046 63.2517 66.5005 62.8756C65.7519 61.8214 64.4527 61.4514 62.8813 61.4514C61.2418 61.4514 59.4724 61.8213 57.901 62.5057C57.1524 62.7523 56.3977 62.9989 55.6491 62.9989C54.7644 62.9989 53.9415 62.629 52.9207 61.3281H43.6407C45.8246 61.6364 47.6002 62.8756 47.8724 64.8608V87.5923C47.6002 89.5529 45.8617 90.7736 43.715 91.1066C41.9951 90.3667 41.1846 89.3433 40.4608 87.9684C40.1886 87.4752 41.2774 90.0153 24.6291 47.8939H19.5127L12.2805 67.4688C10.4369 72.4257 8.72937 77.2531 7.3683 80.9708L5.11635 87.1053C4.09555 89.7687 1.84363 91.0079 0 91.1929H8.45716C7.02186 90.9463 6.13717 90.4469 5.7969 89.7687C5.45664 89.0843 5.25247 88.5295 5.25247 88.0362C5.25247 87.728 5.32054 87.358 5.45664 87.0436C6.20523 85.0584 7.0961 82.395 8.1169 79.7316C11.3897 73.1038 25.6561 73.2888 26.2005 64.8054C29.4733 73.4183 33.5008 83.2643 35.1403 87.3519C35.4805 88.2212 35.6847 88.8994 35.6847 89.3988C35.6847 89.7687 35.5486 90.453 34.5216 91.1929H43.8696C43.8263 91.1744 43.7954 91.1497 43.7459 91.1312H57.3504C55.0985 90.9462 53.2548 89.5837 52.9145 87.5369V61.6426C53.7312 62.8818 54.6901 63.3133 55.7109 63.3133C56.3234 63.3133 56.9421 63.19 57.6907 62.8818C58.167 62.6968 58.7114 62.6352 59.3301 62.6352C60.0106 62.6352 60.5613 62.7585 60.9696 62.9434C62.7452 63.7511 62.473 65.9151 64.1743 65.9151C64.2423 65.9151 64.3104 65.9151 64.3785 65.9151C66.2963 65.7302 66.8407 64.5526 66.8407 63.8682ZM8.52521 78.7389C10.1647 74.2814 11.2536 71.4269 12.1444 68.9546L13.5117 65.2986C14.8109 61.7042 16.3761 57.3083 19.655 48.2638C19.8592 48.5721 21.0223 51.7349 25.9345 64.1827C25.9283 72.7894 12.4166 72.7278 8.52521 78.7389Z" fill="#E5BAA9"/>
<path d="M151.01 87.1608V73.2272C151.01 67.8388 148.214 61.7043 141.526 61.396C139.547 61.2727 137.703 61.396 136.07 61.8276C132.178 62.8202 129.314 65.6686 129.042 69.3863C128.015 65.1754 125.014 61.8276 120.034 61.396C119.217 61.3344 118.326 61.4577 117.305 61.6426C113.965 62.4503 110.754 63.9361 107.753 65.5453V61.2727H98.2691C99.1538 61.396 100.317 61.8276 101.065 62.327C102.018 63.073 102.569 63.9978 102.705 65.1137V68.332C102.092 68.6403 101.202 69.2013 100.113 69.8795C98.9558 70.5638 97.7247 71.3653 96.4255 72.2346C94.9902 67.401 90.2821 62.7586 84.4852 62.7586C80.1855 62.7586 76.7766 65.1137 75.8857 68.9547C75.6135 70.2556 75.6816 71.4948 76.0219 72.6107C76.7024 74.9042 78.546 76.5133 81.0702 77.2593C82.3694 77.6909 83.8665 77.7526 85.506 77.5676C89.5335 77.1977 93.3507 74.6576 96.4935 72.5491C100.181 70.1939 103.93 67.9621 107.753 65.8597C110.482 64.4355 114.509 62.5797 117.714 62.5797C120.17 62.5797 121.809 63.6957 122.966 65.5514C123.987 67.3455 124.402 69.3924 124.402 71.3715V87.2287C124.402 88.3446 123.857 89.3989 122.898 90.077C122.082 90.6319 121.055 91.0696 120.034 91.193H133.75C131.43 90.823 129.586 89.3988 129.45 87.167V73.2272C129.45 72.7957 129.45 72.3579 129.45 71.9264C129.382 71.4948 129.382 71.1187 129.314 70.6871C129.246 69.4479 129.45 68.332 129.926 67.2777C131.225 64.3677 134.77 62.3208 138.254 62.3208C141.941 62.3208 144.125 64.306 145.35 67.2161C145.758 68.3936 145.962 69.7562 145.962 71.3653V87.2225C145.826 89.4543 143.914 90.8785 141.594 91.1868H155.242C152.916 90.8169 151.147 89.331 151.01 87.1608ZM92.2557 74.8981C90.2079 76.0756 87.9559 77.0066 85.4998 77.2532C83.5201 77.4998 81.8126 77.3765 80.5195 76.8216C77.9954 75.7674 76.3559 73.9733 76.0837 71.4332C75.9476 70.2556 76.0837 69.1396 76.5601 68.0237C77.4448 65.7919 79.3565 64.491 81.6084 63.5662C82.357 63.3196 83.1118 63.1963 83.9284 63.1963C84.8131 63.1963 85.772 63.3813 86.6567 63.7512C90.6843 65.7364 91.9092 71.0016 92.2495 74.7747V74.8981H92.2557Z" fill="#E5BAA9"/>
<path d="M94.5757 75.0213C93.8271 75.4529 93.1403 75.8906 92.3918 76.1989C92.4598 78.1163 92.2557 79.9166 91.9154 81.7107C91.1668 85.0584 89.5954 87.8451 86.3226 89.7009C84.8193 90.5085 83.0499 90.8785 80.9341 90.8168C72.9533 90.5702 71.3818 83.5664 70.6333 77.808C70.4291 75.8228 70.4972 73.8438 70.8374 71.9263C71.7221 66.7228 75.2733 61.5193 81.5527 61.3344C74.933 61.5193 69.4083 65.4836 67.0883 70.9954C66.2717 72.9128 65.9314 74.898 66.0675 77.0682C66.6119 84.3186 73.2317 91.1312 81.4909 91.1312C88.1786 91.1312 94.5942 86.051 96.4317 80.3543C97.1122 78.1225 97.2483 75.8968 96.7719 73.665C96.011 74.152 95.2562 74.5897 94.5757 75.0213Z" fill="#E5BAA9"/>
<path d="M108.632 89.3927C108.087 88.8378 107.815 88.0918 107.747 87.1608V67.0311C107.407 67.2161 106.794 67.5243 105.903 68.0237C105.019 68.5786 103.924 69.2013 102.699 69.8795V87.4691C102.426 89.5776 100.515 90.8785 98.3308 91.1868H112.047C111.842 91.1251 111.638 91.0635 111.434 91.0018C110.339 90.6936 109.318 90.3236 108.632 89.3927Z" fill="#E5BAA9"/>
<path d="M184.381 87.1607V71.7352C184.381 64.1149 178.72 61.3898 173.462 61.3898C169.162 61.3898 166.57 63.1839 165.203 65.4774C163.835 67.7709 164.114 69.3184 164.114 69.565C164.114 70.6809 164.318 71.7352 164.658 72.66C160.086 74.5774 156.881 77.4936 156.671 82.136C156.671 82.321 156.671 82.5676 156.671 82.7526C156.671 84.1151 156.875 85.2927 157.42 86.2853C159.059 89.8797 162.876 91.6121 167.244 91.6121C171.884 91.6121 175.98 89.1953 179.321 86.4702C179.321 89.1336 181.641 91.1805 184.437 91.1805H188.669C186.219 90.7551 184.381 89.3309 184.381 87.1607ZM179.327 86.1065C175.708 89.2631 172.094 90.4407 169.57 90.7551C169.23 90.8168 168.958 90.8168 168.618 90.8168C165.617 90.8168 163.025 88.7699 161.862 85.5516C161.385 84.3124 161.181 83.0732 161.181 81.8339C161.181 81.2174 161.249 80.5947 161.385 79.9782C162.474 74.8363 167.461 70.9953 174.421 70.9953C176.06 70.9953 177.693 71.1803 179.333 71.6119V86.1065H179.327ZM179.327 71.3036C177.483 70.9337 175.708 70.7487 174.074 70.7487C170.591 70.7487 167.591 71.5564 164.93 72.5428C164.59 71.6735 164.454 70.7487 164.454 69.8794C164.454 69.5095 164.454 69.1334 164.522 68.7635C164.93 64.9842 168.005 61.8275 172.781 61.8275C176.258 61.8892 177.966 64.1827 178.72 66.5995C179.129 67.8387 179.333 69.2629 179.333 70.8104C179.327 70.9953 179.327 71.1186 179.327 71.3036Z" fill="#E5BAA9"/>
<path d="M225.424 47C212.252 47 202.36 57.5303 202.36 69.1766C202.36 72.0866 202.972 74.935 204.203 77.5984C207.68 85.4654 215.803 91.4087 225.696 91.4087C238.595 91.4087 248.692 80.6317 248.692 69.1704C248.692 55.5513 237.228 47 225.424 47ZM243.439 69.2999C243.439 74.1335 242.282 79.3987 239.275 83.6096C236.275 87.8822 231.703 90.6072 225.628 90.6072C225.56 90.6072 225.424 90.6072 225.355 90.6072C214.096 90.6072 208.02 80.5085 207.68 70.3542C207.68 69.9843 207.68 69.5465 207.68 69.1766C207.68 67.7524 207.748 66.2049 208.02 64.6574C208.973 58.8374 211.708 52.8262 216.62 49.9779C219.28 48.3071 222.281 47.561 225.492 47.561C227.948 47.561 230.268 48.0543 232.452 49.1085C238.112 51.772 242.895 57.9681 243.439 67.8757C243.439 68.369 243.439 68.8067 243.439 69.2999Z" fill="#E5BAA9"/>
<path d="M274.416 63.8682C274.416 63.56 274.28 63.2517 274.076 62.8756C273.327 61.8214 272.028 61.4514 270.456 61.4514C268.817 61.4514 267.047 61.8213 265.476 62.5057C264.727 62.7523 263.973 62.9989 263.224 62.9989C262.339 62.9989 261.517 62.629 260.496 61.3281H251.216C253.4 61.6364 255.175 62.8756 255.447 64.8608V87.5923C255.175 89.5775 253.4 90.8106 251.216 91.1251H264.932C262.68 90.9401 260.836 89.5776 260.496 87.5307V61.6364C261.312 62.8756 262.271 63.3072 263.292 63.3072C263.905 63.3072 264.523 63.1839 265.272 62.8756C265.748 62.6907 266.293 62.629 266.911 62.629C267.592 62.629 268.143 62.7523 268.551 62.9373C270.326 63.7449 270.054 65.9089 271.756 65.9089C271.824 65.9089 271.892 65.9089 271.96 65.9089C273.871 65.7301 274.416 64.5526 274.416 63.8682Z" fill="#E5BAA9"/>
<path d="M314.301 87.469V69.1334C312.662 71.3653 310.96 73.4676 309.253 75.9461V87.7773C308.912 90.0708 306.661 91.2484 304.885 91.4334H318.601C316.349 91.1251 314.369 89.6392 314.301 87.469Z" fill="#E5BAA9"/>
<path d="M336.004 87.4691V73.5355C336.004 73.4122 336.004 73.2273 336.004 73.104C336.004 66.3529 331.772 62.0187 326.588 61.7043V61.6427C326.18 61.6427 325.771 61.581 325.289 61.581C323.581 61.581 321.261 61.7043 319.077 62.8819C317.506 63.5662 315.941 64.9904 314.301 66.9695V48.079H304.885C306.661 48.3872 309.253 49.4415 309.253 52.0433V73.8438C303.796 81.5874 297.721 90.5086 290.557 90.6936C290.489 90.6936 290.421 90.6936 290.353 90.6936C284.005 90.6936 280.052 86.9759 278.481 80.9709C277.596 77.4998 277.732 75.5207 277.732 75.2125C277.732 70.3789 279.712 65.1754 285.236 62.8264C286.944 62.1421 288.509 61.7721 290.081 61.7721C295.197 61.7721 300.041 65.3048 302.633 70.1323L302.905 70.009C300.722 65.9831 296.15 61.4639 289.53 61.2727C289.394 61.2727 289.326 61.2727 289.19 61.2727C285.639 61.2727 281.345 62.3887 278.066 64.9904C274.725 67.5922 272.609 71.4331 272.609 75.829C272.609 76.1989 272.677 76.6367 272.677 77.0066C272.677 77.8143 272.814 78.5541 272.882 79.3001C274.521 87.9747 281.481 91.1313 288.305 91.4396C288.509 91.4396 288.645 91.4396 288.849 91.4396C293.081 91.4396 296.83 89.3927 300.177 86.1128C303.518 82.8267 306.457 78.4924 309.253 74.3432C310.961 71.9264 312.594 69.5712 314.301 67.5922C315.05 66.7845 315.601 66.168 316.349 65.4836C318.601 63.2518 321.466 62.5736 323.309 62.5736C323.854 62.5736 324.472 62.6353 325.017 62.7586C328.289 63.4368 330.956 66.168 330.956 71.6181V87.4753C330.956 89.9537 328.364 91.2546 326.588 91.4396H340.304C337.916 91.0018 336.072 89.6393 336.004 87.4691Z" fill="#E5BAA9"/>
<path d="M386.704 73.2888C381.315 71.618 376.879 69.7561 376.879 66.4762C376.879 66.2912 376.947 66.1063 376.947 65.8597C377.22 63.3195 379.54 61.211 384.112 60.7178C384.384 60.6562 384.724 60.6561 384.996 60.6561C387.248 60.6561 390.935 61.4022 395.025 64.6821L395.229 64.4971C392.705 62.327 388.813 60.4095 385.064 60.4095C378.172 60.4095 375.58 63.7573 375.376 67.7832C375.376 67.9682 375.376 68.1531 375.376 68.2764C375.376 72.6723 378.995 75.2741 383.567 76.8894C388.003 78.4369 392.983 79.7994 394.419 82.2779C394.691 82.7711 394.895 83.3938 394.895 84.0103C394.895 84.2569 394.827 84.5036 394.827 84.7563C393.738 91.1991 378.519 91.7539 373.471 91.7539C365.007 91.7539 356.414 90.3914 352.591 87.728C351.087 86.6737 349.862 85.4345 348.971 83.9487C348.903 83.6404 348.903 83.2705 348.903 82.9561C348.903 79.8611 351.427 76.9449 355.931 74.9041C360.435 72.8573 365.96 72.0558 370.532 72.0558C371.144 72.0558 371.689 72.1175 372.307 72.1175C372.307 64.1889 365.824 60.4095 358.932 60.4095C354.088 60.4095 349.175 62.2036 345.692 65.6747C343.236 68.2148 341.733 71.5564 341.733 75.3974C341.733 75.644 341.733 75.8906 341.733 76.1434C341.937 84.2569 347.19 88.5295 353.469 90.0215C358.109 91.1991 365.545 92.0684 372.914 92.0684C378.643 92.0684 391.474 91.384 395.093 86.4333C396.114 85.1324 396.732 83.7082 396.8 82.0374C396.8 81.9141 396.8 81.7908 396.8 81.6059C396.8 77.1915 391.956 74.9596 386.704 73.2888ZM348.631 83.4431C346.787 80.0337 346.583 76.9387 346.583 74.8918C346.583 73.9609 346.651 73.0361 346.787 72.1051L346.855 71.7968C347.604 67.3393 350.271 62.0742 355.591 61.0815C356.272 60.9582 356.958 60.8966 357.571 60.8966C359.551 60.8966 362.143 61.6426 364.327 63.6833C366.511 65.7302 367.735 68.6402 367.735 71.4886C367.735 71.6119 367.735 71.6735 367.735 71.7968C363.3 72.0435 358.456 73.2211 354.7 75.2063C350.945 77.1915 348.625 79.8549 348.625 82.8882C348.631 83.0732 348.631 83.2582 348.631 83.4431Z" fill="#E5BAA9"/>
<path d="M409.564 90.8477C409.836 90.8477 410.176 90.786 410.516 90.7244C410.226 90.8045 409.854 90.7922 409.539 90.8477C409.551 90.8415 409.557 90.8477 409.564 90.8477Z" fill="#E5BAA9"/>
<path d="M406.427 88.4308C405.746 86.6984 405.61 84.2199 405.61 81.4949V61.6118H410.046V61.3035H399.059C402.882 61.1185 407.726 57.5242 407.726 52.8201H402.678C402.678 56.4761 401.929 61.3035 396.807 61.3035V61.6118H400.562V80.5639C400.562 87.8143 401.861 91.0943 407.522 91.0943C408.258 91.0943 408.895 90.9586 409.551 90.8415C408.252 90.8353 407.101 90.1571 406.427 88.4308Z" fill="#E5BAA9"/>
<path d="M434.607 65.8227C434.675 65.8227 434.743 65.8227 434.811 65.8227C436.723 65.6377 437.267 64.4602 437.267 63.7758C437.267 63.4676 437.131 63.1593 436.927 62.7832C436.179 61.7289 434.879 61.359 433.308 61.359C431.668 61.359 429.893 61.729 428.328 62.4133C427.579 62.6599 426.824 62.9065 426.076 62.9065C425.191 62.9065 424.368 62.5366 423.347 61.2357H414.067C416.251 61.544 418.027 62.7832 418.299 64.7685V87.4999C418.027 89.4852 416.251 90.7182 414.067 91.0327H427.783C425.531 90.8477 423.688 89.4852 423.347 87.4383V61.544C424.164 62.7832 425.123 63.2148 426.144 63.2148C426.756 63.2148 427.375 63.0915 428.123 62.7832C428.6 62.5983 429.144 62.5366 429.763 62.5366C430.443 62.5366 430.988 62.6599 431.402 62.8449C433.172 63.6525 432.9 65.8227 434.607 65.8227Z" fill="#E5BAA9"/>
<path d="M459.7 87.0683V71.6427C459.7 64.0224 454.039 61.2974 448.781 61.2974C444.481 61.2974 441.889 63.0915 440.522 65.385C439.154 67.6785 439.433 69.2259 439.433 69.4725C439.433 70.5884 439.637 71.6427 439.977 72.5675C435.405 74.4849 432.2 77.4011 431.996 82.0436C431.996 82.2286 431.996 82.4752 431.996 82.6601C431.996 84.0227 432.201 85.2003 432.745 86.1929C434.384 89.7872 438.202 91.5197 442.569 91.5197C447.209 91.5197 451.305 89.1029 454.646 86.3778C454.646 89.0412 456.966 91.0881 459.762 91.0881H463.994C461.544 90.6627 459.7 89.2385 459.7 87.0683ZM454.652 86.0141C451.033 89.1707 447.42 90.3483 444.896 90.6627C444.555 90.7244 444.283 90.7244 443.943 90.7244C440.942 90.7244 438.35 88.6775 437.187 85.4592C436.711 84.22 436.506 82.9807 436.506 81.7415C436.506 81.1188 436.574 80.5023 436.711 79.8857C437.799 74.7439 442.786 70.9029 449.746 70.9029C451.385 70.9029 453.019 71.0878 454.658 71.5194L454.652 86.0141ZM454.652 71.2111C452.808 70.8412 451.033 70.6563 449.399 70.6563C445.916 70.6563 442.916 71.4639 440.256 72.4504C439.915 71.5811 439.779 70.6563 439.779 69.787C439.779 69.417 439.779 69.041 439.847 68.671C440.256 64.8917 443.324 61.7351 448.106 61.7351C451.59 61.7967 453.291 64.0902 454.046 66.507C454.454 67.7462 454.658 69.1704 454.658 70.7179C454.652 70.9029 454.652 71.0262 454.652 71.2111Z" fill="#E5BAA9"/>
</svg>
